<?xml version="1.0" encoding="utf-8"?>
<svg viewBox="-538.841 -533.958 1817.448 1186.169" xmlns="http://www.w3.org/2000/svg">
  <path opacity="1.000000" stroke="none" d="M 1192.708 12.195 C 1216.892 23.168 1242.103 28.795 1268.134 31.832 C 1268.131 54.346 1268.128 76.592 1268.125 98.17 C 1252.407 101.342 1236.936 103.679 1221.897 107.657 C 1187.168 116.842 1157.321 133.977 1135.769 163.657 C 1120.515 184.664 1112.667 208.573 1109.457 233.947 C 1107.435 249.934 1106.46 266.127 1106.2 282.247 C 1105.535 323.569 1105.674 364.903 1105.216 406.229 C 1104.896 435.175 1101.095 463.63 1091.862 491.218 C 1078.521 531.078 1053.089 560.651 1016.802 581.664 C 978.878 603.625 938.195 617.28 895.191 624.537 C 884.396 626.358 873.524 627.732 862.401 629.353 C 862.404 605.932 862.408 583.183 862.411 560.85 C 874.418 557.995 886.274 556 897.589 552.335 C 936.42 539.756 968.361 517.786 988.974 481.666 C 1001.654 459.448 1007.921 434.992 1009.016 409.683 C 1010.455 376.406 1010.369 343.058 1010.7 309.739 C 1010.987 280.901 1011.64 252.111 1016.282 223.556 C 1021.269 192.873 1030.173 163.653 1047.879 137.656 C 1072.938 100.861 1108.459 80.101 1151.175 70.589 C 1161.706 68.244 1172.439 66.806 1181.798 65.175 C 1170.084 62.798 1156.93 60.772 1144.126 57.418 C 1092.508 43.896 1053.944 14.376 1032.672 -35.555 C 1023.263 -57.641 1019.016 -81.041 1016.341 -104.764 C 1011.6 -146.801 1013.704 -188.993 1013.642 -231.129 C 1013.602 -258.989 1012.53 -286.708 1007.49 -314.213 C 995.974 -377.056 956.051 -417.571 893.341 -429.462 C 885.021 -431.039 876.624 -432.204 868.029 -433.598 C 868.032 -455.675 868.035 -477.75 868.038 -500.577 C 874.99 -499.843 881.529 -499.251 888.043 -498.448 C 922.347 -494.217 955.932 -487.042 987.905 -473.506 C 1022.824 -458.724 1052.678 -437.496 1073.954 -405.441 C 1089.328 -382.278 1097.345 -356.362 1102.366 -329.341 C 1107.531 -301.552 1108.925 -273.464 1108.805 -245.266 C 1108.659 -211.27 1108.364 -177.273 1108.388 -143.277 C 1108.406 -119.044 1110.66 -95.018 1117.694 -71.705 C 1129.59 -32.272 1155.521 -5.222 1192.708 12.195 Z" style=""/>
  <path opacity="1.000000" stroke="none" d="M -272.766 409.454 C -271.241 426.716 -268.193 443.207 -262.523 459.129 C -254.505 481.64 -241.313 500.304 -222.155 514.918 C -194.858 535.741 -164.723 549.501 -130.117 553.83 C -130.12 576.201 -130.123 598.599 -130.127 621.756 C -138.599 620.65 -147.112 619.759 -155.549 618.399 C -192.872 612.384 -228.91 602.177 -262.54 584.547 C -287.164 571.639 -310.301 556.697 -327.891 534.543 C -347.869 509.384 -359.021 480.365 -363.523 448.956 C -366.161 430.56 -367.37 411.843 -367.635 393.248 C -368.216 352.429 -367.613 311.594 -367.837 270.767 C -367.977 245.36 -370.582 220.186 -379.031 196.031 C -393.29 155.269 -422.25 129.042 -461.794 113.595 C -480.808 106.168 -500.602 101.886 -520.829 99.472 C -522.132 99.317 -523.422 99.057 -525.038 98.794 C -525.035 76.754 -525.032 54.875 -525.029 32.828 C -503.809 30.135 -483.141 26.014 -463.247 18.588 C -431.587 6.771 -405.22 -11.705 -388.034 -41.575 C -377.042 -60.68 -371.897 -81.672 -369.822 -103.329 C -368.285 -119.385 -367.751 -135.572 -367.517 -151.711 C -366.98 -188.698 -367.607 -225.715 -366.439 -262.677 C -365.247 -300.341 -357.826 -336.857 -342.985 -371.825 C -324.004 -416.547 -291.753 -446.696 -246.37 -463.487 C -215.104 -475.054 -182.775 -481.589 -149.805 -485.473 C -143.03 -486.271 -136.236 -486.906 -129.037 -487.659 C -129.04 -465.514 -129.043 -443.658 -129.046 -423.109 C -145.684 -419.063 -162.4 -416.411 -178.119 -410.909 C -223.885 -394.89 -250.991 -361.395 -263.551 -315.373 C -271.063 -287.851 -273.014 -259.612 -273.323 -231.249 C -273.64 -202.089 -273.192 -172.917 -273.761 -143.764 C -274.406 -110.713 -277.501 -77.854 -288.059 -46.287 C -306.286 8.207 -344.215 42.133 -399.104 57.341 C -412.198 60.968 -425.814 62.705 -439.19 65.313 C -440.102 65.491 -441.01 65.683 -443.22 66.135 C -419.646 68.694 -397.924 73.317 -377.276 82.211 C -328.905 103.047 -299.788 140.276 -285.73 190.17 C -276.855 221.67 -274.236 254.011 -273.898 286.553 C -273.586 316.546 -273.938 346.545 -273.803 376.541 C -273.754 387.359 -273.144 398.175 -272.766 409.454 Z" style=""/>
  <path opacity="1.000000" stroke="none" d="M -31.725 266.564 C -32.327 267.389 -32.741 267.912 -33.123 268.457 C -35.358 271.64 -38.117 273.847 -42.298 273.012 C -46.91 272.092 -48.733 268.715 -49.461 264.49 C -51.805 250.883 -54.561 237.33 -56.379 223.652 C -60.137 195.363 -61.496 166.962 -60.014 138.393 C -56.738 75.252 -40.052 15.868 -10.982 -40.15 C 19.669 -99.218 61.209 -149.871 109.267 -195.459 C 138.081 -222.792 168.824 -247.801 201.13 -270.874 C 204.55 -273.316 205.514 -276.353 206.329 -279.959 C 214.884 -317.832 227.927 -353.965 248.217 -387.259 C 282.041 -442.76 330.411 -479.832 391.77 -500.372 C 399.487 -502.955 407.357 -505.08 415.15 -507.433 C 419.992 -508.895 423.576 -507.294 426.123 -503.035 C 462.57 -442.072 498.993 -381.094 535.576 -320.212 C 536.953 -317.92 539.614 -315.692 542.137 -314.899 C 636.008 -285.372 702.597 -224.98 744.386 -136.482 C 765.343 -92.1 778.226 -45.266 786.412 2.981 C 799.106 77.8 800.358 153.122 796.418 228.68 C 796.172 233.413 793.736 236.058 789.3 236.933 C 785.081 237.766 781.871 235.046 779.783 230.067 C 770.731 208.486 762.599 186.431 752.14 165.546 C 731.187 123.71 702.51 87.566 667.136 56.832 C 666.005 55.849 664.855 54.886 663.688 53.946 C 663.451 53.756 663.097 53.711 661.708 53.194 C 662.586 55.854 663.232 57.881 663.921 59.892 C 679.252 104.593 686.494 150.544 685.115 197.807 C 684.142 231.08 678.612 263.685 669.883 295.737 C 669.15 298.425 665.565 301.247 662.699 302.221 C 658.863 303.524 656.242 300.392 653.872 297.256 C 642.048 281.605 630.843 265.374 617.841 250.751 C 599.773 230.43 577.829 215.128 551.2 207.707 C 520.864 199.254 491.826 204.399 463.694 216.965 C 434.308 230.092 409.165 249.446 385.528 270.929 C 380.968 275.074 376.633 279.465 372.182 283.73 C 366.541 289.137 359.193 287.051 357.311 279.474 C 354.349 267.552 349.588 256.459 341.952 246.768 C 327.982 229.039 308.738 222.463 287.083 221.65 C 260.191 220.641 234.604 227.346 209.458 235.933 C 181.555 245.462 154.827 257.743 128.748 271.452 C 121.352 275.341 117.308 273.749 114.057 266.029 C 104.205 242.638 96.749 218.585 92.94 193.431 C 88.679 165.284 89.419 137.34 95.762 109.566 C 96.161 107.818 96.54 106.064 96.928 104.313 C 96.557 104.106 96.186 103.899 95.815 103.692 C 53.369 157.885 10.924 212.078 -31.725 266.564 M -42.97 130.826 C -45.717 168.982 -43.35 206.819 -36.245 245.36 C -34.489 243.231 -33.333 241.891 -32.242 240.499 C 2.066 196.689 36.434 152.927 70.642 109.04 C 90.401 83.689 109.811 58.066 129.547 32.698 C 140.786 18.252 152.281 4.002 163.843 -10.188 C 167.334 -14.47 172.55 -14.747 176.18 -11.499 C 180.012 -8.071 180.105 -3.754 176.425 0.89 C 173.632 4.415 170.755 7.876 168.023 11.447 C 157.2 25.597 145.015 38.934 135.883 54.105 C 106.661 102.651 99.884 155.063 112.967 209.976 C 116.485 224.743 121.541 239.143 126.02 254.142 C 128.879 252.758 130.482 251.912 132.139 251.192 C 154.541 241.454 176.63 230.891 199.437 222.217 C 229.469 210.795 260.505 203.049 293.095 205.591 C 326.892 208.227 351.858 224.226 366.298 255.464 C 367.398 257.842 368.43 260.252 369.491 262.642 C 370.062 262.413 370.427 262.361 370.659 262.158 C 372.163 260.839 373.636 259.487 375.12 258.148 C 401.219 234.591 429.123 213.693 461.826 200.026 C 494.365 186.428 527.648 182.424 561.722 193.68 C 590.152 203.071 613.11 220.751 632.98 242.62 C 641.801 252.328 649.848 262.738 658.307 272.903 C 658.508 272.507 658.975 271.96 659.062 271.359 C 662.13 250.125 666.533 228.976 667.942 207.631 C 671.997 146.166 660.162 87.391 634.835 31.311 C 632.844 26.901 633.221 23.175 637.015 20.204 C 640.698 17.319 644.361 18.179 647.987 20.764 C 704.62 61.144 746.834 113.395 776.145 176.284 C 777.643 179.499 779.127 182.721 781.232 187.268 C 781.431 184.598 781.563 183.49 781.59 182.38 C 783.091 119.095 779.826 56.13 768.151 -6.193 C 759.322 -53.319 745.6 -98.902 723.448 -141.661 C 681.941 -221.777 618.394 -275.276 531.554 -300.779 C 528.856 -301.571 526.006 -304.016 524.529 -306.473 C 488.411 -366.502 452.447 -426.623 416.576 -486.799 C 414.91 -489.594 413.292 -489.859 410.535 -489.067 C 340.628 -469.008 287.481 -428.052 253.479 -363.206 C 238.23 -334.126 228.138 -303.245 221.139 -271.244 C 220.385 -267.791 218.677 -263.722 216.059 -261.63 C 193.818 -243.852 170.632 -227.209 148.925 -208.816 C 96.081 -164.041 50.026 -113.219 14.926 -53.095 C -18.134 3.537 -38.235 64.287 -42.97 130.826 M 96.817 102.668 C 96.747 102.856 96.677 103.045 96.607 103.234 C 96.791 103.179 96.976 103.125 96.817 102.668 Z" style=""/>
  <path opacity="1.000000" stroke="none" d="M 443.786 423.015 C 425.629 432.066 407.513 441.199 389.26 450.052 C 387.244 451.03 384.448 450.402 382.014 450.519 C 382.103 448.216 381.528 445.626 382.381 443.65 C 400.932 400.61 419.68 357.655 438.246 314.62 C 439.635 311.399 441.394 309.67 444.827 308.765 C 474.055 301.064 503.532 295.015 533.948 295.619 C 559.355 296.123 583.569 301.13 604.539 316.576 C 606.471 318 608.127 320.917 608.395 323.311 C 611.154 347.964 613.645 372.649 616.03 397.342 C 616.177 398.865 615.211 401.393 614.06 401.92 C 612.587 402.595 610.131 402.231 608.568 401.415 C 598.545 396.183 588.655 390.699 578.713 385.313 C 577.317 384.557 575.879 383.881 573.385 382.627 C 574.291 384.828 574.705 385.991 575.234 387.099 C 584.183 405.851 593.212 424.566 601.997 443.395 C 602.809 445.137 602.078 447.599 602.065 449.726 C 599.819 449.608 597.102 450.273 595.401 449.25 C 577.58 438.532 559.924 427.541 542.215 416.634 C 540.955 415.857 539.646 415.156 537.658 414.018 C 538.114 415.652 538.265 416.679 538.675 417.59 C 555.529 455.022 572.391 492.451 589.311 529.852 C 590.553 532.595 591.917 535.687 588.614 537.139 C 587.001 537.848 583.545 536.487 582.028 534.963 C 564.744 517.606 547.678 500.033 530.538 482.532 C 529.75 481.726 528.822 481.057 527.773 480.166 C 510.179 509.118 492.725 537.822 475.29 566.537 C 470.8 573.932 466.344 581.346 461.931 588.786 C 460.512 591.179 458.765 592.828 455.879 591.524 C 453.088 590.263 453.084 588.06 453.76 585.254 C 463.962 542.9 474.051 500.518 484.148 458.138 C 484.445 456.887 484.527 455.583 484.835 453.425 C 483.059 454.806 481.877 455.643 480.787 456.586 C 464.911 470.323 449.094 484.129 433.102 497.729 C 431.629 498.982 429.064 498.95 427.005 499.515 C 426.485 497.311 425.056 494.857 425.584 492.94 C 431.84 470.182 438.388 447.504 445.021 424.166 C 444.717 423.356 444.252 423.186 443.786 423.015 M 569.969 510.843 C 570.361 511.015 570.754 511.186 571.146 511.358 C 570.959 510.641 570.771 509.924 570.439 508.501 C 555.093 474.406 539.705 440.33 524.521 406.163 C 523.696 404.308 524.583 401.692 524.672 399.429 C 526.798 399.598 529.352 399.059 530.985 400.045 C 548.497 410.62 565.861 421.442 583.275 432.18 C 584.738 433.082 586.271 433.872 588.751 435.264 C 587.96 433.338 587.644 432.449 587.239 431.601 C 578.362 413.004 569.41 394.441 560.692 375.768 C 559.875 374.016 560.527 371.578 560.496 369.458 C 562.751 369.499 565.366 368.806 567.197 369.708 C 574.65 373.376 581.856 377.544 589.164 381.505 C 594.812 384.566 600.478 387.593 606.612 390.892 C 606.612 389.519 606.666 388.872 606.604 388.236 C 604.729 368.683 602.675 349.144 601.075 329.568 C 600.67 324.616 598.438 321.911 594.433 319.506 C 572.442 306.297 548.264 303.22 523.294 303.99 C 498.544 304.754 474.433 309.65 450.54 315.838 C 447.55 316.612 445.785 318.042 444.525 320.961 C 428.334 358.499 412.006 395.979 395.727 433.479 C 395.162 434.781 394.735 436.141 393.973 438.205 C 395.606 437.528 396.489 437.224 397.317 436.81 C 414.274 428.342 431.191 419.792 448.225 411.482 C 450.131 410.551 452.692 410.964 454.95 410.754 C 455.117 413.059 455.924 415.538 455.352 417.642 C 449.596 438.809 443.615 459.914 437.408 481.521 C 437.465 481.796 437.523 482.069 437.581 482.344 C 437.882 482.149 438.183 481.955 439.124 481.552 C 455.5 467.395 471.834 453.189 488.323 439.165 C 489.812 437.898 492.3 437.806 494.326 437.169 C 494.938 439.336 496.475 441.719 496.028 443.639 C 488.326 476.659 480.37 509.619 472.497 542.6 C 471.188 548.088 470.012 553.608 468.774 559.113 C 470.303 558.653 470.844 557.87 471.338 557.057 C 488.344 529.049 505.358 501.044 522.339 473.02 C 525.55 467.722 527.5 467.496 531.76 471.851 C 544.335 484.704 556.97 497.497 569.969 510.843 Z" style=""/>
  <path opacity="1.000000" stroke="none" d="M 196.74 452.898 C 180.077 467.248 163.46 481.652 146.677 495.86 C 145.059 497.23 142.406 497.378 140.233 498.093 C 139.793 495.724 138.48 493.116 139.05 491.021 C 145.068 468.888 151.39 446.837 157.611 424.758 C 157.91 423.694 158.052 422.584 158.408 420.779 C 152.607 423.636 147.412 426.153 142.253 428.743 C 128.584 435.605 114.97 442.58 101.217 449.269 C 99.661 450.026 96.585 449.986 95.606 448.972 C 94.551 447.879 94.409 444.893 95.11 443.266 C 114.051 399.314 133.129 355.421 152.311 311.573 C 153.006 309.986 154.787 308.209 156.395 307.783 C 188.838 299.195 221.562 292.441 255.426 294.54 C 277.901 295.933 299.041 301.524 317.688 314.827 C 320.355 316.73 321.668 318.782 321.981 322.117 C 324.25 346.323 326.774 370.506 329.04 394.713 C 329.216 396.599 328.591 399.657 327.361 400.3 C 325.819 401.106 322.979 400.528 321.197 399.596 C 309.912 393.698 298.764 387.538 286.553 380.912 C 287.423 383.141 287.801 384.322 288.33 385.431 C 297.273 404.184 306.312 422.892 315.069 441.732 C 315.923 443.569 315.063 446.204 314.999 448.469 C 312.764 448.227 310.105 448.687 308.359 447.634 C 289.423 436.207 270.629 424.542 250.383 412.071 C 251.531 414.948 252.085 416.511 252.765 418.019 C 269.503 455.133 286.236 492.25 303.039 529.335 C 304.224 531.948 304.619 534.683 301.846 535.673 C 300.123 536.289 296.928 535.362 295.552 533.977 C 278.291 516.601 261.243 499.014 244.134 481.486 C 243.328 480.66 242.467 479.886 241.124 478.602 C 240.067 480.286 239.127 481.739 238.23 483.218 C 217.18 517.929 196.176 552.668 174.954 587.273 C 173.978 588.866 171.056 589.267 169.04 590.223 C 168.377 588.114 166.76 585.783 167.193 583.93 C 177.246 540.857 187.522 497.837 197.936 454.127 C 197.658 453.264 197.199 453.081 196.74 452.898 M 109.424 435.863 C 126.819 427.159 144.182 418.39 161.655 409.846 C 163.475 408.956 166.668 408.497 167.909 409.486 C 169.12 410.45 169.318 413.711 168.8 415.653 C 165.496 428.013 161.846 440.281 158.358 452.593 C 155.749 461.807 153.212 471.042 150.642 480.268 C 152.999 479.535 154.517 478.297 155.998 477.017 C 171.244 463.835 186.435 450.587 201.808 437.556 C 203.275 436.313 206.055 435.724 207.884 436.184 C 208.812 436.418 209.767 439.855 209.375 441.531 C 201.153 476.659 192.733 511.74 184.373 546.836 C 183.496 550.514 182.753 554.224 181.948 557.919 C 183.424 557.365 183.965 556.561 184.467 555.734 C 201.574 527.582 218.683 499.43 235.775 471.269 C 238.71 466.431 240.748 466.133 244.562 470.035 C 256.203 481.949 267.85 493.858 279.517 505.747 C 280.572 506.821 281.782 507.742 282.92 508.735 C 283.359 506.881 283.073 505.643 282.562 504.506 C 267.632 471.312 252.639 438.146 237.836 404.895 C 236.989 402.993 236.775 399.811 237.817 398.28 C 239.766 395.418 242.391 397.346 244.742 398.791 C 263.013 410.029 281.327 421.199 300.05 432.811 C 300.435 432.905 300.821 432.999 301.206 433.094 C 301.046 432.427 300.887 431.76 300.502 430.416 C 291.566 411.669 282.564 392.953 273.805 374.124 C 273.004 372.404 272.951 369.13 274.021 368.085 C 275.099 367.034 278.398 367.126 280.06 367.991 C 291.41 373.898 302.581 380.15 313.821 386.268 C 315.766 387.326 317.768 388.28 320.125 389.475 C 318.016 367.802 316.057 346.768 313.788 325.767 C 313.562 323.676 311.904 321.119 310.137 319.913 C 292.37 307.785 272.19 303.458 251.117 302.595 C 220.862 301.356 191.511 307.09 162.492 314.88 C 160.794 315.336 158.991 317.281 158.215 318.98 C 153.18 330.012 148.381 341.153 143.568 352.286 C 131.635 379.884 119.736 407.497 107.44 435.53 C 107.88 435.726 108.32 435.922 109.424 435.863 M 284.249 509.03 C 284.049 508.897 283.849 508.763 283.649 508.63 C 283.682 508.93 283.715 509.23 284.249 509.03 Z" style=""/>
  <path fill="concurrentColor" opacity="1.000000" stroke="none" d="M 96.989 102.869 C 96.976 103.125 96.791 103.179 96.607 103.234 C 96.677 103.045 96.747 102.856 96.989 102.869 Z" style=""/>
  <path fill="concurrentColor" opacity="1.000000" stroke="none" d="M 570.329 509.48 C 570.771 509.924 570.959 510.641 571.147 511.358 C 570.754 511.186 570.361 511.015 569.775 510.579 C 569.745 510.127 569.91 509.94 570.329 509.48 Z" style=""/>
  <path fill="concurrentColor" opacity="1.000000" stroke="none" d="M 444.063 423.282 C 444.252 423.186 444.717 423.356 445.056 423.783 C 444.733 423.876 444.536 423.712 444.063 423.282 Z" style=""/>
  <path fill="concurrentColor" opacity="1.000000" stroke="none" d="M 438.291 481.575 C 438.183 481.955 437.882 482.149 437.581 482.344 C 437.523 482.069 437.465 481.796 437.552 481.279 C 437.831 481.155 437.965 481.272 438.291 481.575 Z" style=""/>
  <path fill="concurrentColor" opacity="1.000000" stroke="none" d="M 300.446 431.412 C 300.887 431.76 301.046 432.427 301.206 433.094 C 300.821 432.999 300.435 432.905 299.838 432.6 C 299.806 432.17 299.986 431.951 300.446 431.412 Z" style=""/>
  <path fill="concurrentColor" opacity="1.000000" stroke="none" d="M 108.532 435.859 C 108.32 435.922 107.88 435.726 107.631 435.317 C 107.983 435.27 108.144 435.435 108.532 435.859 Z" style=""/>
  <path fill="concurrentColor" opacity="1.000000" stroke="none" d="M 197.007 453.183 C 197.199 453.081 197.658 453.264 197.969 453.736 C 197.639 453.839 197.457 453.653 197.007 453.183 Z" style=""/>
  <path fill="concurrentColor" opacity="1.000000" stroke="none" d="M 283.999 509.28 C 283.715 509.23 283.682 508.93 283.649 508.63 C 283.849 508.763 284.049 508.897 283.999 509.28 Z" style=""/>
  <path opacity="1.000000" stroke="none" d="M 293.073 -95.134 C 280.286 -153.39 286.286 -208.66 316.309 -260.417 C 325.598 -276.431 337.752 -290.086 353.2 -300.551 C 386.206 -322.912 424.752 -319.919 453.882 -292.601 C 475.629 -272.204 488.033 -246.439 494.694 -217.926 C 507.626 -162.568 502.086 -109.189 475.384 -58.563 C 467.076 -42.81 456.164 -28.982 442.305 -17.653 C 405.898 12.109 361.243 9.253 329.036 -24.974 C 310.415 -44.764 299.697 -68.685 293.073 -95.134 M 319.416 -230.821 C 302.677 -190.233 299.003 -148.326 307.586 -105.44 C 312.547 -80.648 321.952 -57.634 339.029 -38.44 C 366.243 -7.852 402.593 -5.401 433.685 -31.939 C 445.765 -42.249 455.076 -54.8 462.277 -68.839 C 484.393 -111.954 489.448 -157.55 480.793 -204.798 C 476.078 -230.536 466.499 -254.352 448.857 -274.231 C 421.597 -304.947 384.14 -307.125 353.411 -279.917 C 338.275 -266.516 327.802 -249.845 319.416 -230.821 Z" style=""/>
</svg>